<?xml version="1.0" encoding="utf-8"?>
<!-- Svg Vector Icons : http://www.onlinewebfonts.com/icon -->
<!DOCTYPE svg PUBLIC "-//W3C//DTD SVG 1.1//EN" "http://www.w3.org/Graphics/SVG/1.1/DTD/svg11.dtd">
<svg version="1.1" xmlns="http://www.w3.org/2000/svg" xmlns:xlink="http://www.w3.org/1999/xlink" x="0px" y="0px" viewBox="0 0 1000 1000" enable-background="new 0 0 1000 1000" xml:space="preserve">
<metadata> Svg Vector Icons : http://www.onlinewebfonts.com/icon </metadata>
<g><path d="M785.9,287.9H214.1c-11.3,0-20.4,9.4-20.4,21c0,11.6,9.1,21,20.4,21h571.7c11.3,0,20.4-9.4,20.4-21C806.2,297.4,797.1,287.9,785.9,287.9L785.9,287.9z M806.2,181.7H193.8c-11.3,0-20.5,9.4-20.5,20.9c0,11.6,9.1,20.9,20.5,20.9h612.5c11.3,0,20.5-9.3,20.5-20.9C826.7,191,817.6,181.7,806.2,181.7L806.2,181.7z M979.2,400.2l-80.5-301c-0.2-0.7-0.4-1.3-0.7-2.1c-12.7-33.1-31.2-55.2-80.4-55.2L181,43.7c-40.8,0-64.7,16.5-80.2,54.9c-0.3,0.9-0.6,1.7-0.8,2.5L20.2,408.5C14,414.5,10,422.2,10,431.1v481.7c0,23,26.9,45.3,49.3,45.3h898.4c22.4,0,32.3-22.3,32.3-45.3V431.1C990,417.6,986.5,406.9,979.2,400.2L979.2,400.2z M745,740.3H255V617.8h490V740.3L745,740.3z M683.7,434.1c0,0-43.3,0.6-64.7,0.6H391.2c-21.4,0-74.9-0.6-74.9-0.6h-245l67.9-320.8c8.3-20.4,16.2-27.6,42-27.6l636.7-1.8c28.3,0,34,7.2,41.9,27.6l69.1,322.7L683.7,434.1L683.7,434.1z"/></g>
</svg>